<?xml version="1.0" encoding="UTF-8" standalone="no"?>
<!-- Created with Inkscape (http://www.inkscape.org/) -->

<svg
   xmlns:osb="http://www.openswatchbook.org/uri/2009/osb"
   xmlns:dc="http://purl.org/dc/elements/1.1/"
   xmlns:cc="http://creativecommons.org/ns#"
   xmlns:rdf="http://www.w3.org/1999/02/22-rdf-syntax-ns#"
   xmlns:svg="http://www.w3.org/2000/svg"
   xmlns="http://www.w3.org/2000/svg"
   xmlns:sodipodi="http://sodipodi.sourceforge.net/DTD/sodipodi-0.dtd"
   xmlns:inkscape="http://www.inkscape.org/namespaces/inkscape"
   width="1000"
   height="1000"
   viewBox="0 0 264.58333 264.58334"
   version="1.1"
   id="svg8"
   inkscape:version="0.92.2 (unknown)"
   sodipodi:docname="bloglogo.svg"
   enable-background="new">
  <defs
     id="defs2">
    <linearGradient
       id="linearGradient4513"
       osb:paint="solid">
      <stop
         style="stop-color:#000000;stop-opacity:1;"
         offset="0"
         id="stop4511" />
    </linearGradient>
  </defs>
  <sodipodi:namedview
     id="base"
     pagecolor="#ffffff"
     bordercolor="#666666"
     borderopacity="1.0"
     inkscape:pageopacity="0.0"
     inkscape:pageshadow="2"
     inkscape:zoom="0.55861436"
     inkscape:cx="1242.812"
     inkscape:cy="404.59716"
     inkscape:document-units="px"
     inkscape:current-layer="layer1"
     showgrid="false"
     units="px"
     inkscape:snap-bbox="true"
     inkscape:snap-bbox-edge-midpoints="true"
     showguides="true"
     inkscape:guide-bbox="true"
     inkscape:window-width="1920"
     inkscape:window-height="992"
     inkscape:window-x="0"
     inkscape:window-y="27"
     inkscape:window-maximized="1"
     inkscape:bbox-nodes="true">
    <sodipodi:guide
       position="18.472046,-42.154156"
       orientation="1,0"
       id="guide5959"
       inkscape:locked="false"
       inkscape:label=""
       inkscape:color="rgb(0,0,255)" />
    <sodipodi:guide
       position="325.86584,25.135417"
       orientation="0,1"
       id="guide5961"
       inkscape:locked="false"
       inkscape:label=""
       inkscape:color="rgb(0,0,255)" />
    <inkscape:grid
       type="xygrid"
       id="grid5963" />
    <sodipodi:guide
       position="333.44411,247.24123"
       orientation="0,1"
       id="guide5965"
       inkscape:locked="false"
       inkscape:label=""
       inkscape:color="rgb(0,0,255)" />
    <sodipodi:guide
       position="240.77083,54.926162"
       orientation="1,0"
       id="guide5967"
       inkscape:locked="false"
       inkscape:label=""
       inkscape:color="rgb(0,0,255)" />
  </sodipodi:namedview>
  <metadata
     id="metadata5">
    <rdf:RDF>
      <cc:Work
         rdf:about="">
        <dc:format>image/svg+xml</dc:format>
        <dc:type
           rdf:resource="http://purl.org/dc/dcmitype/StillImage" />
        <dc:title />
      </cc:Work>
    </rdf:RDF>
  </metadata>
  <g
     inkscape:label="Background"
     inkscape:groupmode="layer"
     id="layer1"
     transform="translate(0,-32.41665)"
     style="display:inline;opacity:1">
    <path
       style="fill:#007bff;fill-opacity:1;stroke:none;stroke-width:0.19132839;stroke-opacity:1"
       inkscape:transform-center-x="-1.8397802e-05"
       inkscape:transform-center-y="-37.134497"
       d="m 264.57342,261.97332 c -33.06987,57.27869 -231.48908,57.27869 -264.55894857,0 C -33.055397,204.69463 66.154209,32.858551 132.29395,32.858551 c 66.13973,0 165.34934,171.836079 132.27947,229.114769 z"
       id="path12"
       transform="matrix(0.95277958,0,0,0.97246904,6.2446987,0.46272584)"
       inkscape:connector-curvature="0"
       inkscape:export-xdpi="9.6000004"
       inkscape:export-ydpi="9.6000004" />
    <flowRoot
       xml:space="preserve"
       id="flowRoot2181"
       style="font-style:normal;font-weight:normal;font-size:40px;line-height:125%;font-family:sans-serif;letter-spacing:0px;word-spacing:0px;fill:#000000;fill-opacity:1;stroke:none;stroke-width:1px;stroke-linecap:butt;stroke-linejoin:miter;stroke-opacity:1"
       transform="matrix(0.26458333,0,0,0.26458333,0,32.41665)"><flowRegion
         id="flowRegion2183"><rect
           id="rect2185"
           width="406.36264"
           height="370.55975"
           x="268.52158"
           y="-74.08625" /></flowRegion><flowPara
         id="flowPara2187"></flowPara></flowRoot>  </g>
  <g
     inkscape:groupmode="layer"
     id="layer2"
     inkscape:label="Blog name"
     style="display:inline">
    <g
       aria-label="智
虛空"
       transform="matrix(0.8914945,0,0,1.1217119,0,-32.41665)"
       style="font-style:normal;font-variant:normal;font-weight:normal;font-stretch:normal;font-size:131.56089783px;line-height:75%;font-family:'王漢宗中隸書繁';-inkscape-font-specification:'王漢宗中隸書繁, Normal';font-variant-ligatures:normal;font-variant-caps:normal;font-variant-numeric:normal;font-feature-settings:normal;text-align:center;letter-spacing:0px;word-spacing:0px;writing-mode:lr-tb;text-anchor:middle;fill:#ffffff;fill-opacity:1;stroke:none;stroke-width:2.96384835px;stroke-linecap:butt;stroke-linejoin:miter;stroke-opacity:1"
       id="text5953">
      <path
         d="m 109.60719,44.508698 q 5.01062,-1.413252 8.09407,4.368233 0.38544,1.927162 3.4689,1.927162 11.43449,-0.256955 20.42791,0.513909 4.36823,0.256955 5.78148,1.156297 3.72585,7.708647 -6.29539,6.680827 h -3.72585 q -3.08346,0 -3.59737,3.854323 v 3.340414 q -0.38543,3.083458 3.59737,3.211936 8.99342,0 15.93121,1.541729 4.62518,2.312594 1.6702,5.781485 -2.44107,1.927161 -6.29539,1.284774 -7.19474,-0.51391 -14.38948,-0.51391 -3.08345,0 -5.52453,3.854324 -6.8093,11.049059 -21.84116,23.125939 -4.88214,5.39605 -12.847744,0.12848 -4.368233,-2.95498 1.670206,-6.809307 14.646428,-5.781485 24.153758,-17.215977 2.05564,-3.083459 -2.18412,-2.569549 -10.66362,1.284775 -19.657044,3.597368 -2.826503,0.770865 -4.49671,-0.385432 -3.725846,-3.854323 0.385432,-8.222556 3.083459,-3.340413 7.708642,-2.441071 6.2954,0 12.59079,-0.51391 3.08346,-0.770865 7.83713,-0.899342 5.01062,1.541729 3.34041,-6.166917 -0.51391,-3.854323 -4.36823,-3.725846 -2.05564,0.128477 -4.23976,0.642387 -2.95498,0.128478 -4.75366,3.340414 -1.28478,3.9828 -4.49671,3.46889 -1.28478,-0.770864 -1.41326,-2.569548 l 0.89935,-4.368233 q 0.51391,-5.139098 0.51391,-10.406673 -0.25696,-3.083458 2.05564,-5.01062 z m 49.59229,19.914003 q -3.21194,-9.121898 6.93778,-8.864943 l 26.85178,-0.51391 q 2.56955,0.128477 5.1391,0.642387 7.58017,1.798684 6.03844,7.837124 -1.54173,5.139098 -2.56955,10.278195 -0.25695,7.451692 -2.44107,10.920583 -4.62519,3.597368 -9.63581,1.670206 -5.26757,-1.284774 -12.97622,-0.51391 l -10.27819,1.670207 q -3.72585,0.51391 -5.26758,-4.49671 0.38543,-9.121898 -1.79868,-18.629229 z m 29.29285,-1.927161 q -10.40667,-0.51391 -17.60141,0.642387 -2.31259,1.156297 -2.31259,4.239755 0,7.323214 2.18412,10.149718 3.34041,0.642387 9.76428,-0.128478 5.26758,-0.513909 10.53515,-0.513909 1.79869,-0.770865 1.54173,-4.111278 l 0.25696,-8.993421 q -0.51391,-0.642387 -4.36824,-1.284774 z m -56.53007,19.52857 q 2.8265,-3.468891 8.35103,-0.128477 6.93779,7.323214 8.35104,10.663627 0.25695,1.798684 -0.25696,2.569549 -2.18411,2.184117 -8.47951,-2.826504 -1.79868,-1.156297 -5.1391,-2.184116 -1.92716,-0.51391 -3.34041,-3.083459 -1.28477,-2.826503 0.51391,-5.01062 z m -3.72585,16.316635 q 18.11532,-0.899342 35.71673,-0.770865 13.49013,0.256955 21.32726,3.21194 5.26757,2.95498 2.31259,7.06626 -1.67021,5.13909 -2.18411,10.27819 -0.64239,8.47951 -2.82651,15.41729 -2.31259,6.93779 -8.60799,6.2954 -15.9312,-4.36823 -37.51541,-0.51391 -5.90996,3.72584 -9.1219,-3.21194 -0.89934,-2.8265 -1.6702,-10.27819 -1.92717,-14.38948 -3.72585,-20.55639 -1.28477,-6.295398 6.29539,-6.937785 z m 17.72989,7.323215 q -9.63581,0.12848 -13.1047,1.79868 -0.25695,0.64239 -0.51391,2.95498 0,2.3126 3.08346,2.69803 19.27162,0.25696 38.54323,-0.12848 3.08346,-0.38543 3.08346,-3.34041 -0.51391,-3.21194 -4.36823,-3.85432 -13.36166,-0.25696 -26.72331,-0.12848 z m 26.72331,16.05968 q -20.29944,-1.02782 -36.87303,0 -2.8265,0.25695 -2.18411,4.49671 l 0.25695,1.28477 q 1.02782,3.21194 4.11128,3.21194 16.18816,-1.28477 33.0187,-0.38543 3.34042,0 4.36823,-3.9828 0.89935,-4.23976 -2.69802,-4.62519 z"
         style="font-style:normal;font-variant:normal;font-weight:normal;font-stretch:normal;font-size:131.56089783px;line-height:75%;font-family:'王漢宗中隸書繁';-inkscape-font-specification:'王漢宗中隸書繁, Normal';font-variant-ligatures:normal;font-variant-caps:normal;font-variant-numeric:normal;font-feature-settings:normal;text-align:center;letter-spacing:0px;word-spacing:0px;writing-mode:lr-tb;text-anchor:middle;fill:#ffffff;fill-opacity:1;stroke-width:2.96384835px"
         id="path2528"
         inkscape:connector-curvature="0" />
      <path
         d="m 75.560664,141.8946 q 5.909963,-2.05564 9.250376,4.75366 0.128477,0.89934 3.211936,0.89934 H 103.8257 q 5.26758,-0.77086 6.03844,3.21194 -1.41325,5.90996 -6.93778,5.65301 -8.351035,-1.54173 -15.160339,-0.89934 -3.083458,0.51391 -3.340413,2.31259 -0.128478,1.79868 3.9828,1.54173 16.830542,-0.77087 29.678292,1.54173 9.50733,1.54173 7.32321,9.37885 l -2.56955,7.70865 q -2.44107,6.42387 -6.93778,5.26757 -3.46889,-2.31259 -1.1563,-9.1219 2.56955,-4.88214 -3.08346,-5.653 -13.875559,-1.79869 -40.084956,-1.02782 -6.680827,0.12847 -12.847744,1.92716 -6.295395,1.54173 -4.753665,8.35103 1.156297,15.80273 -1.798685,26.59483 -3.211936,11.81993 -11.049059,20.68487 -4.753666,5.1391 -11.04906,9.25038 -3.854323,2.05563 -7.066259,0.64238 -3.597369,-2.69802 -1.413252,-6.8093 2.826504,-4.11128 5.781485,-5.65301 17.087499,-11.43449 18.372274,-30.06372 0.128477,-6.29539 -0.642388,-14.13252 -0.770864,-6.29539 -0.642387,-12.71926 0.128478,-2.56955 3.468891,-4.49671 3.468891,-1.28478 14.132518,-0.89935 5.01062,-0.38543 10.406673,-0.25695 3.854323,-0.12848 3.597368,-4.11128 -0.642387,-5.39605 -1.798684,-9.1219 -0.642387,-2.44107 1.284774,-4.75366 z m 0.642388,29.93524 q 1.027819,-6.29539 6.680826,-2.31259 2.184117,1.41325 2.312594,3.46889 0.256955,1.6702 3.597369,1.28477 7.066259,-0.51391 14.517949,-0.12848 6.93778,0.25696 5.26758,5.65301 -1.28478,1.54173 -4.11128,2.05564 -8.60799,-0.12848 -17.215979,0.77087 -3.083458,0.38543 -2.954981,2.05563 -0.513909,2.69803 3.083459,3.4689 10.792105,2.05563 18.500751,-0.89935 4.75367,-2.05564 6.55235,-2.56955 1.1563,0.25696 1.67021,0.77087 1.54173,2.8265 -1.02782,7.19474 -2.44107,4.49671 -6.93779,4.88214 -12.976216,0.77086 -21.32725,-1.41325 -7.194737,-2.18412 -8.222556,-8.35104 -0.642387,-3.21193 -4.49671,-2.31259 -3.854324,0.89934 -7.837124,2.31259 -5.781485,1.67021 -5.909962,-4.88214 2.698026,-6.42387 7.580168,-6.03844 l 6.937782,-0.64239 q 3.083459,-0.38543 3.340414,-4.36823 z m -0.385433,28.39351 q 5.781485,-4.62518 8.993421,4.11128 0.256955,2.69803 -0.51391,5.39605 -0.770864,5.78149 -0.385432,16.31664 0,3.21194 4.111278,3.21194 4.111278,0 4.49671,-3.85433 0.770865,-6.68082 0.51391,-21.45573 1.798684,-6.16692 6.809304,-3.59737 5.26758,4.23976 1.79868,13.61861 0.12848,0.51391 2.18412,1.28477 2.18412,0.89935 3.9828,-0.77086 1.54173,-1.41325 1.54173,-5.78148 0.12848,-6.03844 3.46889,-7.96561 3.72585,-1.54173 5.90996,2.18412 0.77087,2.31259 -0.38543,5.78149 -0.77086,2.56954 -1.1563,5.13909 -0.38543,4.36824 -1.6702,6.16692 -4.88214,4.88214 -11.17754,3.21194 -3.34041,-0.38544 -3.59737,2.95498 -0.12847,3.34041 4.11128,3.46889 16.31664,0.25695 32.63327,1.02782 2.8265,0.12847 3.59737,2.8265 -3.72585,8.99342 -11.43449,8.86494 -14.38948,-5.01062 -30.834589,-5.90996 -25.181578,-0.89934 -45.224059,4.36824 -4.882142,1.92716 -7.708646,1.28477 -2.826504,-0.89934 -2.954981,-4.36823 0.51391,-3.72585 5.653007,-6.93779 4.239756,-1.41325 11.691447,-1.28477 h 11.948402 q 3.211936,0 3.211936,-3.72585 0.128477,-3.9828 -3.854323,-2.56954 -6.55235,2.95498 -9.378853,1.92716 -2.184117,-1.1563 -2.312594,-4.36824 0.770864,-5.01062 -1.927162,-16.18815 0,-2.69803 0.642387,-3.72585 3.083459,-2.69802 6.680827,1.28478 1.670207,1.6702 1.927162,3.9828 -0.256955,3.21193 0.51391,5.90996 0.128477,4.49671 5.01062,2.95498 2.954981,-0.51391 2.569549,-4.75367 -1.284775,-7.32321 0.513909,-10.02124 z"
         style="font-style:normal;font-variant:normal;font-weight:normal;font-stretch:normal;font-size:131.56089783px;line-height:75%;font-family:'王漢宗中隸書繁';-inkscape-font-specification:'王漢宗中隸書繁, Normal';font-variant-ligatures:normal;font-variant-caps:normal;font-variant-numeric:normal;font-feature-settings:normal;text-align:center;letter-spacing:0px;word-spacing:0px;writing-mode:lr-tb;text-anchor:middle;fill:#ffffff;fill-opacity:1;stroke-width:2.96384835px"
         id="path2530"
         inkscape:connector-curvature="0" />
      <path
         d="m 205.57983,144.7211 q 3.08346,-3.72585 8.73647,-1.79868 5.26757,2.95498 2.44107,9.6358 -0.38543,3.08346 2.69803,3.08346 10.7921,-0.12847 21.58421,0.12848 6.03844,0 10.66362,1.67021 8.86495,2.95498 7.9656,11.69144 0.12848,1.79869 0.64239,3.59737 3.08346,4.88215 2.05564,9.25038 -0.77086,4.23975 -5.1391,5.39605 -1.54173,0.25696 -3.08345,-2.05564 -2.3126,-4.11128 -2.95499,-10.27819 -0.64238,-7.70865 -4.23975,-9.63581 -3.08346,-1.28478 -10.2782,-1.54173 -21.96964,-1.28478 -45.35253,-0.51391 -9.37886,0.38543 -15.67425,2.31259 -4.62519,3.85433 -5.52453,11.94841 0.89934,7.45169 -4.88214,9.25037 -4.36824,0.77087 -5.65301,-5.52453 -0.77086,-4.36823 2.05564,-9.1219 1.28477,-2.56955 1.92716,-5.13909 0.89934,-7.4517 4.88214,-9.63581 5.65301,-1.54173 10.92059,-1.54173 12.07687,-0.38543 24.66766,-0.25696 3.08346,0 2.56955,-3.85432 -1.54173,-4.88214 -1.02782,-7.06626 z m -11.30601,26.08092 q 2.18411,-6.16692 7.45169,-1.41325 5.26757,6.55235 -0.64239,9.63581 -5.13909,4.11128 -10.27819,7.70864 -8.22256,5.65301 -15.4173,6.80931 -2.95498,0.77086 -4.23975,-1.41325 -0.51391,-3.08346 3.59737,-4.62519 11.81992,-6.2954 19.52857,-16.70207 z m 25.82396,0.25696 q 5.01062,-3.21194 8.09408,0.38543 7.70865,6.8093 15.4173,12.97622 2.95498,2.05564 3.34041,4.23975 0,3.4689 -4.49671,2.3126 -10.2782,-6.03844 -20.55639,-11.17754 -7.83713,-2.8265 -1.79869,-8.73646 z m -32.89022,25.95244 q 26.33787,-0.64239 53.06118,-0.38543 6.42387,0.64238 2.69803,5.39605 -2.82651,3.72584 -7.58017,3.85432 -7.83712,-0.89934 -15.80273,-1.28477 -3.08345,0 -3.46889,3.85432 -0.12847,8.09408 0.25696,16.18816 0,3.21193 3.9828,3.34041 23.38289,0.51391 47.15122,1.54173 5.1391,1.28477 0,6.68083 -5.39605,7.06626 -11.17754,5.90996 -11.04906,-4.49671 -20.55639,-5.39605 -37.0015,-3.59737 -70.40564,3.21193 -6.93778,1.79869 -8.60798,-4.11127 -0.25696,-2.44108 3.08345,-4.88215 5.01062,-3.34041 12.59079,-3.08346 15.03186,-0.25695 30.44916,0 3.08346,0 3.46889,-3.85432 0.25695,-7.9656 -0.12848,-15.9312 -0.38543,-3.08346 -4.23976,-2.95498 -7.58016,0.25695 -18.62922,3.08346 -5.52453,1.28477 -6.42388,-4.11128 1.54173,-7.9656 10.2782,-7.06626 z"
         style="font-style:normal;font-variant:normal;font-weight:normal;font-stretch:normal;font-size:131.56089783px;line-height:75%;font-family:'王漢宗中隸書繁';-inkscape-font-specification:'王漢宗中隸書繁, Normal';font-variant-ligatures:normal;font-variant-caps:normal;font-variant-numeric:normal;font-feature-settings:normal;text-align:center;letter-spacing:0px;word-spacing:0px;writing-mode:lr-tb;text-anchor:middle;fill:#ffffff;fill-opacity:1;stroke-width:2.96384835px"
         id="path2532"
         inkscape:connector-curvature="0" />
    </g>
  </g>
</svg>
